<svg id="logo" xmlns="http://www.w3.org/2000/svg" viewBox="0 0 427.48 587.74"><defs><style>.cls-1{fill:#040438;}.cls-2{fill:#3c5bbc;}.cls-3{fill:#3f6ae0;}.cls-4{fill:#7b93cb;}.cls-5{fill:#8c99b0;}.cls-6{fill:#be1e2d;}.cls-7{fill:#f15a29;}.cls-8{fill:#fbb040;}.cls-9{fill:#10103a;}.cls-10,.cls-13{fill:none;}.cls-11{fill:#f49937;}.cls-12{fill:#4b869b;}.cls-13{stroke:#040438;stroke-width:6px;}</style></defs><title>Artboard 3 copy 3</title><path class="cls-1" d="M141.56,556.91l-3-1.17C139.54,556.14,140.55,556.52,141.56,556.91Z"/><path class="cls-1" d="M20.1,428.23c-.18-.57-.36-1.14-.54-1.72C19.74,427.09,19.92,427.66,20.1,428.23Z"/><path class="cls-1" d="M13.14,398.3c-.16-1-.31-2-.45-3C12.82,396.28,13,397.29,13.14,398.3Z"/><path class="cls-1" d="M10.9,359.94c0-.59,0-1.18.07-1.77C10.94,358.75,10.92,359.34,10.9,359.94Z"/><path class="cls-1" d="M21.11,431.32c-.14-.41-.28-.82-.41-1.23C20.83,430.5,21,430.91,21.11,431.32Z"/><path class="cls-1" d="M50.56,487.9q-1.93-2.6-3.78-5.27Q48.64,485.3,50.56,487.9Z"/><path class="cls-1" d="M33.8,461.18c-.34-.65-.68-1.3-1-1.95C33.12,459.88,33.46,460.53,33.8,461.18Z"/><path class="cls-1" d="M74.74,515.06q-2.05-1.93-4.05-3.91Q72.68,513.13,74.74,515.06Z"/><path class="cls-1" d="M35.47,464.29c-.33-.61-.67-1.23-1-1.84C34.8,463.06,35.13,463.68,35.47,464.29Z"/><path class="cls-1" d="M10.77,364.48c0-.84,0-1.69.05-2.53C10.8,362.79,10.78,363.63,10.77,364.48Z"/><path class="cls-2" d="M11,357.87c0,.1,0,.2,0,.3,0-.1,0-.2,0-.29Z"/><path class="cls-2" d="M10.76,365.19h0q0-.36,0-.72C10.77,364.72,10.76,365,10.76,365.19Z"/><path class="cls-2" d="M10.82,361.95c0-.67,0-1.34.07-2C10.87,360.61,10.84,361.28,10.82,361.95Z"/><path class="cls-3" d="M13.25,399h0l-.11-.73C13.17,398.54,13.21,398.78,13.25,399Z"/><path class="cls-3" d="M12.19,391.46q.23,1.91.49,3.8-.26-1.89-.49-3.8Z"/><path class="cls-4" d="M21.77,433.32h0c-.23-.66-.45-1.33-.67-2C21.33,432,21.54,432.66,21.77,433.32Z"/><path class="cls-4" d="M20.69,430.09c-.2-.62-.4-1.24-.59-1.86C20.3,428.85,20.49,429.47,20.69,430.09Z"/><path class="cls-4" d="M19.45,426.13l.12.38-.11-.38Z"/><path class="cls-5" d="M34.47,462.45l-.67-1.27Z"/><path class="cls-5" d="M36,465.3h0l-.55-1Z"/><path class="cls-5" d="M32.6,458.86l.19.37-.19-.37Z"/><path class="cls-6" d="M46.63,482.41l.16.23-.16-.23Z"/><path class="cls-6" d="M50.72,488.12h0l-.16-.22Z"/><path class="cls-7" d="M74.9,515.21h0l-.17-.16Z"/><path class="cls-7" d="M67.86,508.3h0q1.16,1.2,2.33,2.37l.49.47-.49-.47Q69,509.5,67.86,508.3Z"/><path class="cls-8" d="M132.9,553.38h0l1.82.8q1.9.8,3.82,1.56c-1.28-.51-2.55-1-3.82-1.56Z"/><path class="cls-8" d="M141.87,557h0l-.31-.12Z"/><path class="cls-9" d="M97.91,515.62c5.72,3.35,11.13,6.52,22.13,6.52s16.41-3.17,22.13-6.52c6.28-3.68,12.77-7.48,25.67-7.48s19.39,3.8,25.67,7.48c5.72,3.35,11.13,6.52,22.13,6.52S232,519,237.76,515.62c6.28-3.68,12.77-7.48,25.67-7.48s19.39,3.8,25.67,7.48c5.72,3.35,11.13,6.52,22.13,6.52s16.41-3.17,22.13-6.52c6.16-3.61,12.54-7.33,25-7.47L338,487.83l-1.11.65c-6.28,3.68-12.77,7.48-25.67,7.48s-19.39-3.8-25.67-7.48c-5.72-3.35-11.13-6.52-22.13-6.52s-16.41,3.17-22.13,6.52C235,492.16,228.53,496,215.63,496s-19.39-3.8-25.67-7.48c-5.72-3.35-11.13-6.52-22.13-6.52s-16.41,3.17-22.13,6.52C139.43,492.16,132.94,496,120,496s-19.39-3.8-25.67-7.48C88.64,485.13,83.24,482,72.24,482c-10.6,0-16,2.94-21.51,6.16A204,204,0,0,0,67.86,508.3c1.37-.1,2.82-.16,4.37-.16C85.14,508.14,91.63,511.94,97.91,515.62Z"/><path class="cls-8" d="M68.19,218C49.9,244.3,33.55,271.65,23,300.68a197.37,197.37,0,0,0-12,57.19A37.92,37.92,0,0,0,24.44,360c11,0,16.41-3.17,22.13-6.52,6.28-3.68,12.77-7.48,25.67-7.48s19.39,3.8,25.67,7.48C103.63,356.86,109,360,120,360s16.41-3.17,22.13-6.52c6.28-3.68,12.77-7.48,25.67-7.48s19.39,3.8,25.67,7.48c4.62,2.71,9,5.29,16.37,6.19L68.19,218"/><path class="cls-9" d="M72.24,445.56c12.9,0,19.39,3.8,25.67,7.48,5.72,3.35,11.13,6.52,22.13,6.52s16.41-3.17,22.13-6.52c6.28-3.68,12.77-7.48,25.67-7.48s19.39,3.8,25.67,7.48c5.72,3.35,11.13,6.52,22.13,6.52S232,456.4,237.76,453c6.28-3.68,12.77-7.48,25.67-7.48s19.39,3.8,25.67,7.48c5.45,3.19,10.63,6.21,20.62,6.49L270,419.83a46,46,0,0,0-6.58-.45c-11,0-16.41,3.17-22.13,6.52-6.28,3.68-12.77,7.48-25.67,7.48s-19.39-3.8-25.67-7.48c-5.72-3.35-11.13-6.52-22.13-6.52s-16.41,3.17-22.13,6.52c-6.28,3.68-12.77,7.48-25.67,7.48s-19.39-3.8-25.67-7.48c-5.72-3.35-11.13-6.52-22.13-6.52s-16.41,3.17-22.13,6.52c-6.28,3.68-12.77,7.48-25.67,7.48-.92,0-1.8,0-2.66-.06A201.74,201.74,0,0,0,32.6,458.85c5.93-1.12,9.87-3.41,14-5.81C52.85,449.37,59.34,445.56,72.24,445.56Z"/><path class="cls-9" d="M97.91,482.44C103.63,485.79,109,489,120,489s16.41-3.17,22.13-6.52c6.28-3.68,12.77-7.48,25.67-7.48s19.39,3.8,25.67,7.48c5.72,3.35,11.13,6.52,22.13,6.52s16.41-3.17,22.13-6.52c6.28-3.68,12.77-7.48,25.67-7.48s19.39,3.8,25.67,7.48c5.72,3.35,11.13,6.52,22.13,6.52,10.7,0,16.11-3,21.66-6.25L316.5,466.32c-1.64.15-3.38.24-5.27.24-12.9,0-19.39-3.8-25.67-7.48-5.72-3.35-11.13-6.52-22.13-6.52s-16.41,3.17-22.13,6.52c-6.28,3.68-12.77,7.48-25.67,7.48s-19.39-3.8-25.67-7.48c-5.72-3.35-11.13-6.52-22.13-6.52s-16.41,3.17-22.13,6.52c-6.28,3.68-12.77,7.48-25.67,7.48s-19.39-3.8-25.67-7.48c-5.72-3.35-11.13-6.52-22.13-6.52s-16.41,3.17-22.13,6.52c-4.05,2.37-8.2,4.79-14.09,6.21q4.89,8.83,10.61,17.11c6.26-3.67,12.75-7.44,25.61-7.44S91.63,478.76,97.91,482.44Z"/><path class="cls-9" d="M46.57,386.68c6.28-3.68,12.77-7.48,25.67-7.48s19.39,3.8,25.67,7.48C103.63,390,109,393.2,120,393.2s16.41-3.17,22.13-6.52c6.28-3.68,12.77-7.48,25.67-7.48s19.39,3.8,25.67,7.48c5.72,3.35,11.13,6.52,22.13,6.52,10.63,0,16-3,21.56-6.19l-20-20-1.54,0c-12.9,0-19.39-3.8-25.67-7.48-5.72-3.35-11.13-6.52-22.13-6.52s-16.41,3.17-22.13,6.52C139.43,363.22,132.94,367,120,367s-19.39-3.8-25.67-7.48C88.64,356.19,83.24,353,72.24,353s-16.41,3.17-22.13,6.52C43.83,363.22,37.34,367,24.44,367a46.7,46.7,0,0,1-13.68-1.83c0,.65,0,1.29,0,1.94a205,205,0,0,0,1.46,24.33,39,39,0,0,0,12.24,1.74C35.44,393.2,40.84,390,46.57,386.68Z"/><path class="cls-9" d="M46.57,419.86c6.28-3.68,12.77-7.48,25.67-7.48s19.39,3.8,25.67,7.48c5.72,3.35,11.13,6.52,22.13,6.52s16.41-3.17,22.13-6.52c6.28-3.68,12.77-7.48,25.67-7.48s19.39,3.8,25.67,7.48c5.72,3.35,11.13,6.52,22.13,6.52s16.41-3.17,22.13-6.52c6.14-3.59,12.49-7.3,24.82-7.46l-20.27-20.27-1,.59c-6.28,3.68-12.77,7.48-25.67,7.48s-19.39-3.8-25.67-7.48c-5.72-3.35-11.13-6.52-22.13-6.52s-16.41,3.17-22.13,6.52c-6.28,3.68-12.77,7.48-25.67,7.48s-19.39-3.8-25.67-7.48c-5.72-3.35-11.13-6.52-22.13-6.52s-16.41,3.17-22.13,6.52c-6.28,3.68-12.77,7.48-25.67,7.48A49.27,49.27,0,0,1,13.25,399c.74,4.69,1.62,9.33,2.67,13.9s2.21,8.86,3.53,13.21a48.32,48.32,0,0,0,5,.25C35.44,426.38,40.84,423.22,46.57,419.86Z"/><path class="cls-9" d="M357.28,510.67c-1.69,1.69-3.41,3.33-5.16,5-6.64,1-10.84,3.46-15.22,6-6.28,3.68-12.77,7.48-25.67,7.48s-19.39-3.8-25.67-7.48c-5.72-3.35-11.13-6.52-22.13-6.52s-16.41,3.17-22.13,6.52c-6.28,3.68-12.77,7.48-25.67,7.48s-19.39-3.8-25.67-7.48c-5.72-3.35-11.13-6.52-22.13-6.52s-16.41,3.17-22.13,6.52c-6.28,3.68-12.77,7.48-25.67,7.48s-19.39-3.8-25.67-7.48c-5.24-3.07-10.22-6-19.46-6.45a203.23,203.23,0,0,0,58,38.16,50.3,50.3,0,0,0,9.27-4.58c6.28-3.68,12.77-7.48,25.67-7.48s19.39,3.8,25.67,7.48c5.72,3.35,11.13,6.52,22.13,6.52s16.41-3.17,22.13-6.52c6.28-3.68,12.77-7.48,25.67-7.48s19.39,3.8,25.67,7.48a60.31,60.31,0,0,0,7.25,3.8c-1.2.53-2.39,1.06-3.6,1.57q-2.43,1-4.9,2l-2.29-1.33c-5.72-3.35-11.13-6.52-22.13-6.52s-16.41,3.17-22.13,6.52c-6.28,3.68-12.77,7.48-25.67,7.48s-19.39-3.8-25.67-7.48c-5.72-3.35-11.13-6.52-22.13-6.52s-16.41,3.17-22.13,6.52c-1.25.73-2.52,1.47-3.84,2.18a202.79,202.79,0,0,0,215.41-46.35c.59-.59,1.18-1.2,1.77-1.8h0C358.46,509.47,357.87,510.08,357.28,510.67Z"/><path class="cls-10" d="M406.83,360c1.83,0,5.8-.09,9.73-.25,0-.26,0-.52,0-.78A41.81,41.81,0,0,1,406.83,360Z"/><path class="cls-9" d="M392,464.35l0-.07,0,.07Z"/><path class="cls-9" d="M359,452.56l-1.11,0,25.71,25.71q4.45-6.78,8.35-13.94a56.12,56.12,0,0,1-10.81-5.27C375.44,455.73,370,452.56,359,452.56Z"/><path class="cls-9" d="M395.13,458.34q-1.51,3-3.12,5.95Q393.62,461.34,395.13,458.34Z"/><path class="cls-9" d="M395.28,458h0l-.15.3Z"/><path class="cls-9" d="M406.83,367c-12.9,0-19.39-3.8-25.67-7.48C375.44,356.19,370,353,359,353s-16.41,3.17-22.13,6.52c-6.28,3.68-12.77,7.48-25.67,7.48s-19.39-3.8-25.67-7.48c-5.72-3.35-11.13-6.52-22.13-6.52-1.75,0-3.35.09-4.84.24l36.82,36.82a36.41,36.41,0,0,0,15.82,3.13c11,0,16.41-3.17,22.13-6.52,6.28-3.68,12.77-7.48,25.67-7.48s19.39,3.8,25.67,7.48c5.72,3.35,11.13,6.52,22.13,6.52a43.6,43.6,0,0,0,8.32-.74c-.3,2.44-.66,4.86-1,7.27a54.21,54.21,0,0,1-7.27.47c-12.9,0-19.39-3.8-25.67-7.48-5.72-3.35-11.13-6.52-22.13-6.52s-16.41,3.17-22.13,6.52c-6.28,3.68-12.77,7.48-25.67,7.48a55.92,55.92,0,0,1-6-.32l22.88,22.88c1.83-.9,3.54-1.89,5.26-2.9,6.28-3.68,12.77-7.48,25.67-7.48s19.39,3.8,25.67,7.48c5.72,3.35,11.13,6.52,22.13,6.52l1.11,0q-1.07,3.53-2.27,7c-12.12-.22-18.43-3.89-24.51-7.46-5.72-3.35-11.13-6.52-22.13-6.52s-16.41,3.17-22.13,6.52c-1.18.69-2.37,1.39-3.6,2.06l18.12,18.12a53.69,53.69,0,0,1,7.62-.52c12.9,0,19.39,3.8,25.67,7.48a46.32,46.32,0,0,0,10.58,5,201.46,201.46,0,0,0,15.77-43,203.51,203.51,0,0,0,5.69-47.91c0-.11,0-.22,0-.33C412.72,366.94,408.67,367,406.83,367Z"/><path class="cls-11" d="M289.1,353.5c5.72,3.35,11.13,6.52,22.13,6.52s16.41-3.17,22.13-6.52c6.28-3.68,12.77-7.48,25.67-7.48s19.39,3.8,25.67,7.48c5.72,3.35,11.13,6.52,22.13,6.52a41.81,41.81,0,0,0,9.71-1c0,.26,0,.52,0,.78h0a194.6,194.6,0,0,0-11.35-56.69c-8.94-25.35-22.36-49.49-37.71-72.76C361.4,221,355,211.92,348.42,202.9c-19.74-27.13-40.77-53.2-58.68-78.82l-9.35-13.38L247.06,63,213.74,15.37,180.42,63,147.09,110.7l-9.35,13.38c-14.22,20.34-30.39,40.91-46.3,62l161,161a49.56,49.56,0,0,1,11-1.12C276.33,346,282.82,349.83,289.1,353.5Z"/><path class="cls-12" d="M285.56,359.54c6.28,3.68,12.77,7.48,25.67,7.48s19.39-3.8,25.67-7.48C342.62,356.19,348,353,359,353s16.41,3.17,22.13,6.52c6.28,3.68,12.77,7.48,25.67,7.48a50.87,50.87,0,0,0,9.89-.9q0-3.19-.15-6.36c-3.94.16-7.9.25-9.73.25-11,0-16.41-3.17-22.13-6.52C378.42,349.83,371.93,346,359,346s-19.39,3.8-25.67,7.48c-5.72,3.35-11.13,6.52-22.13,6.52s-16.41-3.17-22.13-6.52c-6.28-3.68-12.77-7.48-25.67-7.48a49.56,49.56,0,0,0-11,1.12l6.11,6.11c1.49-.15,3.09-.24,4.84-.24C274.43,353,279.84,356.19,285.56,359.54Z"/><path class="cls-12" d="M416.72,366.13a50.87,50.87,0,0,1-9.89.9c1.84,0,5.89-.08,9.9-.22q0-3.53-.16-7h0Q416.7,362.93,416.72,366.13Z"/><path class="cls-12" d="M50.11,359.54c5.72-3.35,11.13-6.52,22.13-6.52s16.41,3.17,22.13,6.52c6.28,3.68,12.77,7.48,25.67,7.48s19.39-3.8,25.67-7.48c5.72-3.35,11.13-6.52,22.13-6.52s16.41,3.17,22.13,6.52c6.28,3.68,12.77,7.48,25.67,7.48l1.54,0-7.3-7.3c-7.32-.89-11.74-3.48-16.37-6.19-6.28-3.68-12.77-7.48-25.67-7.48s-19.39,3.8-25.67,7.48C136.44,356.86,131,360,120,360s-16.41-3.17-22.13-6.52C91.63,349.83,85.14,346,72.24,346s-19.39,3.8-25.67,7.48C40.84,356.86,35.44,360,24.44,360A37.92,37.92,0,0,1,11,357.87c0,.1,0,.2,0,.29,0,.59,0,1.18-.07,1.77s-.05,1.34-.07,2c0,.84,0,1.68-.05,2.53q0,.36,0,.72A46.7,46.7,0,0,0,24.44,367C37.34,367,43.83,363.22,50.11,359.54Z"/><path class="cls-12" d="M50.11,392.72c5.72-3.35,11.13-6.52,22.13-6.52s16.41,3.17,22.13,6.52c6.28,3.68,12.77,7.48,25.67,7.48s19.39-3.8,25.67-7.48c5.72-3.35,11.13-6.52,22.13-6.52s16.41,3.17,22.13,6.52c6.28,3.68,12.77,7.48,25.67,7.48s19.39-3.8,25.67-7.48l1-.59L237.19,387c-5.52,3.23-10.93,6.19-21.56,6.19-11,0-16.41-3.17-22.13-6.52-6.28-3.68-12.77-7.48-25.67-7.48s-19.39,3.8-25.67,7.48C136.44,390,131,393.2,120,393.2s-16.41-3.17-22.13-6.52c-6.28-3.68-12.77-7.48-25.67-7.48s-19.39,3.8-25.67,7.48c-5.72,3.35-11.13,6.52-22.13,6.52a39,39,0,0,1-12.24-1.74q.23,1.91.49,3.8c.14,1,.3,2,.45,3l.11.73a49.27,49.27,0,0,0,11.19,1.18C37.34,400.2,43.83,396.4,50.11,392.72Z"/><path class="cls-12" d="M311.23,400.2c12.9,0,19.39-3.8,25.67-7.48,5.72-3.35,11.13-6.52,22.13-6.52s16.41,3.17,22.13,6.52c6.28,3.68,12.77,7.48,25.67,7.48a54.21,54.21,0,0,0,7.27-.47c.39-2.41.74-4.83,1-7.27a43.6,43.6,0,0,1-8.32.74c-11,0-16.41-3.17-22.13-6.52-6.28-3.68-12.77-7.48-25.67-7.48s-19.39,3.8-25.67,7.48c-5.72,3.35-11.13,6.52-22.13,6.52a36.41,36.41,0,0,1-15.82-3.13l9.81,9.81A55.92,55.92,0,0,0,311.23,400.2Z"/><path class="cls-12" d="M336.9,425.9c5.72-3.35,11.13-6.52,22.13-6.52s16.41,3.17,22.13,6.52c6.08,3.56,12.39,7.23,24.51,7.46q1.2-3.47,2.27-7l-1.11,0c-11,0-16.41-3.17-22.13-6.52-6.28-3.68-12.77-7.48-25.67-7.48s-19.39,3.8-25.67,7.48c-1.73,1-3.43,2-5.26,2.9l5.2,5.2C334.53,427.29,335.72,426.59,336.9,425.9Z"/><path class="cls-12" d="M50.11,425.9c5.72-3.35,11.13-6.52,22.13-6.52s16.41,3.17,22.13,6.52c6.28,3.68,12.77,7.48,25.67,7.48s19.39-3.8,25.67-7.48c5.72-3.35,11.13-6.52,22.13-6.52s16.41,3.17,22.13,6.52c6.28,3.68,12.77,7.48,25.67,7.48s19.39-3.8,25.67-7.48c5.72-3.35,11.13-6.52,22.13-6.52a46,46,0,0,1,6.58.45l-7.43-7.43c-12.32.17-18.68,3.87-24.82,7.46-5.72,3.35-11.13,6.52-22.13,6.52s-16.41-3.17-22.13-6.52c-6.28-3.68-12.77-7.48-25.67-7.48s-19.39,3.8-25.67,7.48c-5.72,3.35-11.13,6.52-22.13,6.52s-16.41-3.17-22.13-6.52c-6.28-3.68-12.77-7.48-25.67-7.48s-19.39,3.8-25.67,7.48c-5.72,3.35-11.13,6.52-22.13,6.52a48.32,48.32,0,0,1-5-.25l.11.38c.18.57.36,1.15.54,1.72s.39,1.24.59,1.86c.13.41.27.82.41,1.23.22.67.44,1.34.67,2,.86,0,1.74.06,2.66.06C37.34,433.38,43.83,429.58,50.11,425.9Z"/><path class="cls-12" d="M381.16,459.08A56.11,56.11,0,0,0,392,464.35q1.71-3.12,3.31-6.31a46.3,46.3,0,0,1-10.58-5c-6.28-3.68-12.77-7.48-25.67-7.48a53.69,53.69,0,0,0-7.62.52l6.5,6.5,1.11,0C370,452.56,375.44,455.73,381.16,459.08Z"/><path class="cls-12" d="M72.24,452.56c11,0,16.41,3.17,22.13,6.52,6.28,3.68,12.77,7.48,25.67,7.48s19.39-3.8,25.67-7.48c5.72-3.35,11.13-6.52,22.13-6.52s16.41,3.17,22.13,6.52c6.28,3.68,12.77,7.48,25.67,7.48s19.39-3.8,25.67-7.48c5.72-3.35,11.13-6.52,22.13-6.52s16.41,3.17,22.13,6.52c6.28,3.68,12.77,7.48,25.67,7.48,1.89,0,3.63-.09,5.27-.24l-6.79-6.79c-10-.28-15.16-3.3-20.62-6.49-6.28-3.68-12.77-7.48-25.67-7.48S244,449.37,237.76,453c-5.72,3.35-11.13,6.52-22.13,6.52S199.23,456.4,193.5,453c-6.28-3.68-12.77-7.48-25.67-7.48s-19.39,3.8-25.67,7.48c-5.72,3.35-11.13,6.52-22.13,6.52S103.63,456.4,97.91,453c-6.28-3.68-12.77-7.48-25.67-7.48s-19.39,3.8-25.67,7.48c-4.09,2.4-8,4.69-14,5.81l.19.37c.33.65.67,1.3,1,1.95l.67,1.27c.33.62.66,1.23,1,1.84l.55,1c5.89-1.42,10-3.84,14.09-6.21C55.83,455.73,61.24,452.56,72.24,452.56Z"/><path class="cls-12" d="M94.37,488.48c6.28,3.68,12.77,7.48,25.67,7.48s19.39-3.8,25.67-7.48c5.72-3.35,11.13-6.52,22.13-6.52s16.41,3.17,22.13,6.52c6.28,3.68,12.77,7.48,25.67,7.48s19.39-3.8,25.67-7.48c5.72-3.35,11.13-6.52,22.13-6.52s16.41,3.17,22.13,6.52c6.28,3.68,12.77,7.48,25.67,7.48s19.39-3.8,25.67-7.48l1.11-.65-5.12-5.12c-5.55,3.25-11,6.25-21.66,6.25-11,0-16.41-3.17-22.13-6.52-6.28-3.68-12.77-7.48-25.67-7.48s-19.39,3.8-25.67,7.48C232,485.79,226.63,489,215.63,489s-16.41-3.17-22.13-6.52c-6.28-3.68-12.77-7.48-25.67-7.48s-19.39,3.8-25.67,7.48C136.44,485.79,131,489,120,489s-16.41-3.17-22.13-6.52C91.63,478.76,85.14,475,72.24,475s-19.35,3.78-25.61,7.44l.16.23q1.85,2.66,3.78,5.27l.16.22c5.5-3.21,10.91-6.16,21.51-6.16C83.24,482,88.64,485.13,94.37,488.48Z"/><path class="cls-12" d="M120,529.14c12.9,0,19.39-3.8,25.67-7.48,5.72-3.35,11.13-6.52,22.13-6.52s16.41,3.17,22.13,6.52c6.28,3.68,12.77,7.48,25.67,7.48s19.39-3.8,25.67-7.48c5.72-3.35,11.13-6.52,22.13-6.52s16.41,3.17,22.13,6.52c6.28,3.68,12.77,7.48,25.67,7.48s19.39-3.8,25.67-7.48c4.38-2.56,8.57-5,15.22-6,1.75-1.63,3.47-3.27,5.16-5,.6-.6,1.18-1.2,1.77-1.8l-.72-.72c-12.43.14-18.81,3.86-25,7.47-5.72,3.35-11.13,6.52-22.13,6.52s-16.41-3.17-22.13-6.52c-6.28-3.68-12.77-7.48-25.67-7.48s-19.39,3.8-25.67,7.48c-5.72,3.35-11.13,6.52-22.13,6.52s-16.41-3.17-22.13-6.52c-6.28-3.68-12.77-7.48-25.67-7.48s-19.39,3.8-25.67,7.48C136.44,519,131,522.14,120,522.14s-16.41-3.17-22.13-6.52c-6.28-3.68-12.77-7.48-25.67-7.48-1.55,0-3,.06-4.37.16q1.16,1.2,2.33,2.37l.49.47q2,2,4.05,3.91l.17.16c9.24.47,14.22,3.38,19.46,6.45C100.65,525.34,107.14,529.14,120,529.14Z"/><path class="cls-12" d="M167.84,548.32c11,0,16.41,3.17,22.13,6.52,6.28,3.68,12.77,7.48,25.67,7.48s19.39-3.8,25.67-7.48c5.72-3.35,11.13-6.52,22.13-6.52s16.41,3.17,22.13,6.52l2.29,1.33q2.46-1,4.9-2c1.21-.51,2.4-1,3.6-1.57a60.31,60.31,0,0,1-7.25-3.8c-6.28-3.68-12.77-7.48-25.67-7.48s-19.39,3.8-25.67,7.48c-5.72,3.35-11.13,6.52-22.13,6.52s-16.41-3.17-22.13-6.52c-6.28-3.68-12.77-7.48-25.67-7.48s-19.39,3.8-25.67,7.48a50.3,50.3,0,0,1-9.27,4.58l1.83.8c1.26.53,2.54,1,3.82,1.56l3,1.17.31.12c1.32-.71,2.58-1.45,3.84-2.18C151.43,551.49,156.84,548.32,167.84,548.32Z"/><path class="cls-12" d="M359.75,508.15h-1.42l.72.72Z"/><path class="cls-13" d="M384.51,478.29a202.13,202.13,0,0,0,33.11-111.16c0-22.26-4.29-43.55-11.52-64-8.94-25.35-22.36-49.49-37.71-72.76-6.11-9.27-12.53-18.4-19.09-27.42-19.74-27.13-40.77-53.2-58.68-78.82l-9.35-13.38L247.95,63,214.62,15.37,181.3,63,148,110.7l-9.35,13.38C124.42,144.4,108.28,164.93,92.38,186"/><path class="cls-13" d="M68.45,218.89c-18,26-34.13,53.09-44.54,81.79-7.69,21.18-12.28,43.26-12.28,66.45A202.94,202.94,0,0,0,358.17,510.67l1.59-1.61"/></svg>