<svg id="logo" xmlns="http://www.w3.org/2000/svg" viewBox="0 0 427.48 587.74"><defs><style>.cls-1{fill:#040438;}.cls-2{fill:#f15a29;}.cls-3{fill:#fbb040;}.cls-4{fill:#f49937;}.cls-5{fill:#fff;}.cls-6{fill:#10103a;}.cls-7,.cls-8,.cls-9{fill:none;}.cls-7,.cls-8{stroke:#fff;stroke-linecap:round;stroke-miterlimit:10;}.cls-7{stroke-width:12px;}.cls-8{stroke-width:10.39px;}.cls-9{stroke:#040438;stroke-width:6px;}</style></defs><title>Artboard 3 copy 4</title><path class="cls-1" d="M141.56,556.91l-3-1.17C139.54,556.14,140.55,556.52,141.56,556.91Z"/><path class="cls-1" d="M172.11,473.13q-1-.92-1.94-1.87Q171.13,472.21,172.11,473.13Z"/><path class="cls-2" d="M172.18,473.21h0l-.08-.07Z"/><path class="cls-2" d="M168.83,469.91h0l1.11,1.13.24.23-.23-.23Z"/><path class="cls-3" d="M141.87,557h0l-.31-.12Z"/><path class="cls-4" d="M405.22,299.35c-8.94-25.35-22.36-49.49-37.71-72.76-6.11-9.27-12.53-18.4-19.09-27.42C328.68,172,307.65,146,289.74,120.34L280.39,107,247.06,59.3,213.74,11.64,180.42,59.3,147.09,107l-9.35,13.38C120,145.75,99.18,171.5,79.62,198.25,56.83,229.43,35.71,262,23,296.94c-7.69,21.18-12.28,43.26-12.28,66.45A202.34,202.34,0,0,0,70.2,506.94q6.7,6.7,14,12.76V271.26a68.43,68.43,0,0,1,68.36-68.36H259.51c20.73,0,39.92,7.52,52.65,20.63,10,10.26,15.23,23.34,14.83,36.81l-.87,29.08-55.07-1.64.79-26.54c-1.73-1.24-5.79-3.25-12.34-3.25H152.56a13.44,13.44,0,0,0-13.26,13.26V552.31A202.9,202.9,0,0,0,416.74,363.39C416.74,341.13,412.45,319.85,405.22,299.35Z"/><path class="cls-5" d="M152.56,258H259.51c6.54,0,10.61,2,12.34,3.25l-.79,26.54,55.07,1.64.87-29.08c.4-13.48-4.87-26.55-14.83-36.81-12.73-13.11-31.92-20.63-52.65-20.63H152.56a68.43,68.43,0,0,0-68.36,68.36V539.7c15.14,12.56,32.14,3,50.52,10.75q2.27,1,4.58,1.87V271.26A13.44,13.44,0,0,1,152.56,258Z"/><path class="cls-6" d="M284.16,356.23a18.82,18.82,0,0,0,32.14-13.31,17.76,17.76,0,0,0-1.07-5.94,31.35,31.35,0,0,0-3.5-6.75c-.57-.86-1.16-1.71-1.77-2.54-1.83-2.52-3.78-4.93-5.44-7.31l-.87-1.24-3.09-4.42-3.09-4.42-3.09,4.42-3.09,4.42-.87,1.24c-1.65,2.36-3.58,4.74-5.39,7.23a37.75,37.75,0,0,0-5.25,9.15,18,18,0,0,0-1.14,6.16,18.76,18.76,0,0,0,5.51,13.31Z"/><polyline class="cls-7" points="141.87 158.9 177.8 158.9 213.74 158.9"/><line class="cls-7" x1="177.8" y1="217.25" x2="177.8" y2="158.89"/><line class="cls-8" x1="262.97" y1="289.02" x2="331.97" y2="289.02"/><path class="cls-9" d="M138.53,555.74A202.9,202.9,0,0,0,416.74,367.13c0-22.26-4.29-43.55-11.52-64-8.94-25.35-22.36-49.49-37.71-72.76C361.4,221,355,211.92,348.42,202.9c-19.74-27.13-40.77-53.2-58.68-78.82l-9.35-13.38L247.06,63,213.74,15.37,180.42,63,147.09,110.7l-9.35,13.38C120,149.49,99.18,175.24,79.62,202c-22.8,31.18-43.91,63.72-56.6,98.69-7.69,21.18-12.28,43.26-12.28,66.45A202.34,202.34,0,0,0,70.2,510.67c4.47,4.47,8.14,8.73,13,12.76"/></svg>