<svg id="logo" xmlns="http://www.w3.org/2000/svg" viewBox="0 0 427.48 587.74"><defs><style>.cls-1{fill:#040438;}.cls-2{fill:#10103a;}.cls-3{fill:#3c5bbc;}.cls-4{fill:#3f6ae0;}.cls-5{fill:#7b93cb;}.cls-6{fill:#8c99b0;}.cls-7{fill:#be1e2d;}.cls-8{fill:#f15a29;}.cls-9{fill:#fbb040;}.cls-10{fill:#667599;}.cls-11,.cls-12{fill:none;}.cls-11{stroke:#fff;stroke-linecap:round;stroke-linejoin:round;stroke-width:8.95px;}.cls-12{stroke:#040438;stroke-width:6px;}</style></defs><title>Artboard 3 copy 2</title><path class="cls-1" d="M141.56,556.91l-3-1.17C139.54,556.14,140.55,556.52,141.56,556.91Z"/><path class="cls-1" d="M20.1,428.23c-.18-.57-.36-1.14-.54-1.72C19.74,427.09,19.92,427.66,20.1,428.23Z"/><path class="cls-1" d="M13.14,398.3c-.16-1-.31-2-.45-3C12.82,396.28,13,397.29,13.14,398.3Z"/><path class="cls-1" d="M10.9,359.94c0-.59,0-1.18.07-1.77C10.94,358.75,10.92,359.34,10.9,359.94Z"/><path class="cls-1" d="M21.11,431.32c-.14-.41-.28-.82-.41-1.23C20.83,430.5,21,430.91,21.11,431.32Z"/><path class="cls-1" d="M50.56,487.9q-1.93-2.6-3.78-5.27Q48.64,485.3,50.56,487.9Z"/><path class="cls-1" d="M33.8,461.18c-.34-.65-.68-1.3-1-1.95C33.12,459.88,33.46,460.53,33.8,461.18Z"/><path class="cls-1" d="M74.74,515.06q-2.05-1.93-4.05-3.91Q72.68,513.13,74.74,515.06Z"/><path class="cls-1" d="M35.47,464.29c-.33-.61-.67-1.23-1-1.84C34.8,463.06,35.13,463.68,35.47,464.29Z"/><path class="cls-1" d="M10.77,364.48c0-.84,0-1.69.05-2.53C10.8,362.79,10.78,363.63,10.77,364.48Z"/><path class="cls-2" d="M405.22,303.08c-8.94-25.35-22.36-49.49-37.71-72.76C361.4,221,355,211.92,348.42,202.9c-19.74-27.13-40.77-53.2-58.68-78.82l-9.35-13.38L247.06,63,213.74,15.37,180.42,63,147.09,110.7l-9.35,13.38C120,149.49,99.18,175.24,79.62,202c-22.8,31.18-43.91,63.72-56.6,98.69a197.37,197.37,0,0,0-12,57.19A37.92,37.92,0,0,0,24.44,360c11,0,16.41-3.17,22.13-6.52,6.28-3.68,12.77-7.48,25.67-7.48s19.39,3.8,25.67,7.48C103.63,356.86,109,360,120,360s16.41-3.17,22.13-6.52c6.28-3.68,12.77-7.48,25.67-7.48s19.39,3.8,25.67,7.48c5.72,3.35,11.13,6.52,22.13,6.52s16.41-3.17,22.13-6.52c6.28-3.68,12.77-7.48,25.67-7.48s19.39,3.8,25.67,7.48c5.72,3.35,11.13,6.52,22.13,6.52s16.41-3.17,22.13-6.52c6.28-3.68,12.77-7.48,25.67-7.48s19.39,3.8,25.67,7.48c5.72,3.35,11.13,6.52,22.13,6.52a41.81,41.81,0,0,0,9.71-1c.11,2.37.17,4.75.18,7.14a50.87,50.87,0,0,1-9.89.9c-12.9,0-19.39-3.8-25.67-7.48C375.44,356.19,370,353,359,353s-16.41,3.17-22.13,6.52c-6.28,3.68-12.77,7.48-25.67,7.48s-19.39-3.8-25.67-7.48c-5.72-3.35-11.13-6.52-22.13-6.52s-16.41,3.17-22.13,6.52C235,363.22,228.53,367,215.63,367s-19.39-3.8-25.67-7.48c-5.72-3.35-11.13-6.52-22.13-6.52s-16.41,3.17-22.13,6.52C139.43,363.22,132.94,367,120,367s-19.39-3.8-25.67-7.48C88.64,356.19,83.24,353,72.24,353s-16.41,3.17-22.13,6.52C43.83,363.22,37.34,367,24.44,367a46.7,46.7,0,0,1-13.68-1.83c0,.65,0,1.29,0,1.94a205,205,0,0,0,1.46,24.33,39,39,0,0,0,12.24,1.74c11,0,16.41-3.17,22.13-6.52,6.28-3.68,12.77-7.48,25.67-7.48s19.39,3.8,25.67,7.48C103.63,390,109,393.2,120,393.2s16.41-3.17,22.13-6.52c6.28-3.68,12.77-7.48,25.67-7.48s19.39,3.8,25.67,7.48c5.72,3.35,11.13,6.52,22.13,6.52S232,390,237.76,386.68c6.28-3.68,12.77-7.48,25.67-7.48s19.39,3.8,25.67,7.48c5.72,3.35,11.13,6.52,22.13,6.52s16.41-3.17,22.13-6.52c6.28-3.68,12.77-7.48,25.67-7.48s19.39,3.8,25.67,7.48c5.72,3.35,11.13,6.52,22.13,6.52a43.6,43.6,0,0,0,8.32-.74c-.3,2.44-.66,4.86-1,7.27a54.21,54.21,0,0,1-7.27.47c-12.9,0-19.39-3.8-25.67-7.48-5.72-3.35-11.13-6.52-22.13-6.52s-16.41,3.17-22.13,6.52c-6.28,3.68-12.77,7.48-25.67,7.48s-19.39-3.8-25.67-7.48c-5.72-3.35-11.13-6.52-22.13-6.52s-16.41,3.17-22.13,6.52c-6.28,3.68-12.77,7.48-25.67,7.48s-19.39-3.8-25.67-7.48c-5.72-3.35-11.13-6.52-22.13-6.52s-16.41,3.17-22.13,6.52c-6.28,3.68-12.77,7.48-25.67,7.48s-19.39-3.8-25.67-7.48c-5.72-3.35-11.13-6.52-22.13-6.52s-16.41,3.17-22.13,6.52c-6.28,3.68-12.77,7.48-25.67,7.48A49.27,49.27,0,0,1,13.25,399c.74,4.69,1.62,9.33,2.67,13.9s2.21,8.86,3.53,13.21a48.32,48.32,0,0,0,5,.25c11,0,16.41-3.17,22.13-6.52,6.28-3.68,12.77-7.48,25.67-7.48s19.39,3.8,25.67,7.48c5.72,3.35,11.13,6.52,22.13,6.52s16.41-3.17,22.13-6.52c6.28-3.68,12.77-7.48,25.67-7.48s19.39,3.8,25.67,7.48c5.72,3.35,11.13,6.52,22.13,6.52s16.41-3.17,22.13-6.52c6.28-3.68,12.77-7.48,25.67-7.48s19.39,3.8,25.67,7.48c5.72,3.35,11.13,6.52,22.13,6.52s16.41-3.17,22.13-6.52c6.28-3.68,12.77-7.48,25.67-7.48s19.39,3.8,25.67,7.48c5.72,3.35,11.13,6.52,22.13,6.52l1.11,0q-1.07,3.53-2.27,7c-12.12-.22-18.43-3.89-24.51-7.46-5.72-3.35-11.13-6.52-22.13-6.52s-16.41,3.17-22.13,6.52c-6.28,3.68-12.77,7.48-25.67,7.48s-19.39-3.8-25.67-7.48c-5.72-3.35-11.13-6.52-22.13-6.52S247,422.55,241.3,425.9c-6.28,3.68-12.77,7.48-25.67,7.48s-19.39-3.8-25.67-7.48c-5.72-3.35-11.13-6.52-22.13-6.52s-16.41,3.17-22.13,6.52c-6.28,3.68-12.77,7.48-25.67,7.48s-19.39-3.8-25.67-7.48c-5.72-3.35-11.13-6.52-22.13-6.52s-16.41,3.17-22.13,6.52c-6.28,3.68-12.77,7.48-25.67,7.48-.92,0-1.8,0-2.66-.06A201.74,201.74,0,0,0,32.6,458.85c5.93-1.12,9.87-3.41,14-5.81,6.28-3.68,12.77-7.48,25.67-7.48s19.39,3.8,25.67,7.48c5.72,3.35,11.13,6.52,22.13,6.52s16.41-3.17,22.13-6.52c6.28-3.68,12.77-7.48,25.67-7.48s19.39,3.8,25.67,7.48c5.72,3.35,11.13,6.52,22.13,6.52S232,456.4,237.76,453c6.28-3.68,12.77-7.48,25.67-7.48s19.39,3.8,25.67,7.48c5.72,3.35,11.13,6.52,22.13,6.52s16.41-3.17,22.13-6.52c6.28-3.68,12.77-7.48,25.67-7.48s19.39,3.8,25.67,7.48a46.3,46.3,0,0,0,10.58,5q-1.6,3.19-3.31,6.31a56.11,56.11,0,0,1-10.81-5.27c-5.72-3.35-11.13-6.52-22.13-6.52s-16.41,3.17-22.13,6.52c-6.28,3.68-12.77,7.48-25.67,7.48s-19.39-3.8-25.67-7.48c-5.72-3.35-11.13-6.52-22.13-6.52s-16.41,3.17-22.13,6.52c-6.28,3.68-12.77,7.48-25.67,7.48s-19.39-3.8-25.67-7.48c-5.72-3.35-11.13-6.52-22.13-6.52s-16.41,3.17-22.13,6.52c-6.28,3.68-12.77,7.48-25.67,7.48s-19.39-3.8-25.67-7.48c-5.72-3.35-11.13-6.52-22.13-6.52s-16.41,3.17-22.13,6.52c-4.05,2.37-8.2,4.79-14.09,6.21q4.89,8.83,10.61,17.11c6.26-3.67,12.75-7.44,25.61-7.44s19.39,3.8,25.67,7.48C103.63,485.79,109,489,120,489s16.41-3.17,22.13-6.52c6.28-3.68,12.77-7.48,25.67-7.48s19.39,3.8,25.67,7.48c5.72,3.35,11.13,6.52,22.13,6.52s16.41-3.17,22.13-6.52c6.28-3.68,12.77-7.48,25.67-7.48s19.39,3.8,25.67,7.48c5.72,3.35,11.13,6.52,22.13,6.52s16.41-3.17,22.13-6.52c6.28-3.68,12.77-7.48,25.67-7.48,11,0,17.36,2.78,22.89,5.88q-2,2.92-4,5.76C373.16,484,367.93,482,359,482c-11,0-16.41,3.17-22.13,6.52-6.28,3.68-12.77,7.48-25.67,7.48s-19.39-3.8-25.67-7.48c-5.72-3.35-11.13-6.52-22.13-6.52s-16.41,3.17-22.13,6.52C235,492.16,228.53,496,215.63,496s-19.39-3.8-25.67-7.48c-5.72-3.35-11.13-6.52-22.13-6.52s-16.41,3.17-22.13,6.52C139.43,492.16,132.94,496,120,496s-19.39-3.8-25.67-7.48C88.64,485.13,83.24,482,72.24,482c-10.6,0-16,2.94-21.51,6.16A204,204,0,0,0,67.86,508.3c1.37-.1,2.82-.16,4.37-.16,12.9,0,19.39,3.8,25.67,7.48,5.72,3.35,11.13,6.52,22.13,6.52s16.41-3.17,22.13-6.52c6.28-3.68,12.77-7.48,25.67-7.48s19.39,3.8,25.67,7.48c5.72,3.35,11.13,6.52,22.13,6.52S232,519,237.76,515.62c6.28-3.68,12.77-7.48,25.67-7.48s19.39,3.8,25.67,7.48c5.72,3.35,11.13,6.52,22.13,6.52s16.41-3.17,22.13-6.52c6.28-3.68,12.77-7.48,25.67-7.48h.72q-1.23,1.27-2.48,2.52c-1.69,1.69-3.41,3.33-5.16,5-6.64,1-10.84,3.46-15.22,6-6.28,3.68-12.77,7.48-25.67,7.48s-19.39-3.8-25.67-7.48c-5.72-3.35-11.13-6.52-22.13-6.52s-16.41,3.17-22.13,6.52c-6.28,3.68-12.77,7.48-25.67,7.48s-19.39-3.8-25.67-7.48c-5.72-3.35-11.13-6.52-22.13-6.52s-16.41,3.17-22.13,6.52c-6.28,3.68-12.77,7.48-25.67,7.48s-19.39-3.8-25.67-7.48c-5.24-3.07-10.22-6-19.46-6.45a203.23,203.23,0,0,0,58,38.16,50.3,50.3,0,0,0,9.27-4.58c6.28-3.68,12.77-7.48,25.67-7.48s19.39,3.8,25.67,7.48c5.72,3.35,11.13,6.52,22.13,6.52s16.41-3.17,22.13-6.52c6.28-3.68,12.77-7.48,25.67-7.48s19.39,3.8,25.67,7.48a60.31,60.31,0,0,0,7.25,3.8c-1.2.53-2.39,1.06-3.6,1.57q-2.43,1-4.9,2l-2.29-1.33c-5.72-3.35-11.13-6.52-22.13-6.52s-16.41,3.17-22.13,6.52c-6.28,3.68-12.77,7.48-25.67,7.48s-19.39-3.8-25.67-7.48c-5.72-3.35-11.13-6.52-22.13-6.52s-16.41,3.17-22.13,6.52c-1.25.73-2.52,1.47-3.84,2.18A202.88,202.88,0,0,0,416.74,367.13C416.74,344.87,412.45,323.58,405.22,303.08Z"/><path class="cls-3" d="M11,357.87c0,.1,0,.2,0,.3,0-.1,0-.2,0-.29Z"/><path class="cls-3" d="M10.76,365.19h0q0-.36,0-.72C10.77,364.72,10.76,365,10.76,365.19Z"/><path class="cls-3" d="M10.82,361.95c0-.67,0-1.34.07-2C10.87,360.61,10.84,361.28,10.82,361.95Z"/><path class="cls-3" d="M50.11,359.54c5.72-3.35,11.13-6.52,22.13-6.52s16.41,3.17,22.13,6.52c6.28,3.68,12.77,7.48,25.67,7.48s19.39-3.8,25.67-7.48c5.72-3.35,11.13-6.52,22.13-6.52s16.41,3.17,22.13,6.52c6.28,3.68,12.77,7.48,25.67,7.48s19.39-3.8,25.67-7.48c5.72-3.35,11.13-6.52,22.13-6.52s16.41,3.17,22.13,6.52c6.28,3.68,12.77,7.48,25.67,7.48s19.39-3.8,25.67-7.48C342.62,356.19,348,353,359,353s16.41,3.17,22.13,6.52c6.28,3.68,12.77,7.48,25.67,7.48a50.87,50.87,0,0,0,9.89-.9c0-2.39-.07-4.77-.18-7.14a41.81,41.81,0,0,1-9.71,1c-11,0-16.41-3.17-22.13-6.52C378.42,349.83,371.93,346,359,346s-19.39,3.8-25.67,7.48c-5.72,3.35-11.13,6.52-22.13,6.52s-16.41-3.17-22.13-6.52c-6.28-3.68-12.77-7.48-25.67-7.48s-19.39,3.8-25.67,7.48C232,356.86,226.63,360,215.63,360s-16.41-3.17-22.13-6.52c-6.28-3.68-12.77-7.48-25.67-7.48s-19.39,3.8-25.67,7.48C136.44,356.86,131,360,120,360s-16.41-3.17-22.13-6.52C91.63,349.83,85.14,346,72.24,346s-19.39,3.8-25.67,7.48C40.84,356.86,35.44,360,24.44,360A37.92,37.92,0,0,1,11,357.87c0,.1,0,.2,0,.29,0,.59,0,1.18-.07,1.77s-.05,1.34-.07,2c0,.84,0,1.68-.05,2.53q0,.36,0,.72A46.7,46.7,0,0,0,24.44,367C37.34,367,43.83,363.22,50.11,359.54Z"/><path class="cls-4" d="M13.25,399h0l-.11-.73C13.17,398.54,13.21,398.78,13.25,399Z"/><path class="cls-4" d="M12.19,391.46q.23,1.91.49,3.8-.26-1.89-.49-3.8Z"/><path class="cls-4" d="M50.11,392.72c5.72-3.35,11.13-6.52,22.13-6.52s16.41,3.17,22.13,6.52c6.28,3.68,12.77,7.48,25.67,7.48s19.39-3.8,25.67-7.48c5.72-3.35,11.13-6.52,22.13-6.52s16.41,3.17,22.13,6.52c6.28,3.68,12.77,7.48,25.67,7.48s19.39-3.8,25.67-7.48c5.72-3.35,11.13-6.52,22.13-6.52s16.41,3.17,22.13,6.52c6.28,3.68,12.77,7.48,25.67,7.48s19.39-3.8,25.67-7.48c5.72-3.35,11.13-6.52,22.13-6.52s16.41,3.17,22.13,6.52c6.28,3.68,12.77,7.48,25.67,7.48a54.21,54.21,0,0,0,7.27-.47c.39-2.41.74-4.83,1-7.27a43.6,43.6,0,0,1-8.32.74c-11,0-16.41-3.17-22.13-6.52-6.28-3.68-12.77-7.48-25.67-7.48s-19.39,3.8-25.67,7.48c-5.72,3.35-11.13,6.52-22.13,6.52s-16.41-3.17-22.13-6.52c-6.28-3.68-12.77-7.48-25.67-7.48S244,383,237.76,386.68c-5.72,3.35-11.13,6.52-22.13,6.52s-16.41-3.17-22.13-6.52c-6.28-3.68-12.77-7.48-25.67-7.48s-19.39,3.8-25.67,7.48C136.44,390,131,393.2,120,393.2s-16.41-3.17-22.13-6.52c-6.28-3.68-12.77-7.48-25.67-7.48s-19.39,3.8-25.67,7.48c-5.72,3.35-11.13,6.52-22.13,6.52a39,39,0,0,1-12.24-1.74q.23,1.91.49,3.8c.14,1,.3,2,.45,3l.11.73a49.27,49.27,0,0,0,11.19,1.18C37.34,400.2,43.83,396.4,50.11,392.72Z"/><path class="cls-5" d="M21.77,433.32h0c-.23-.66-.45-1.33-.67-2C21.33,432,21.54,432.66,21.77,433.32Z"/><path class="cls-5" d="M20.69,430.09c-.2-.62-.4-1.24-.59-1.86C20.3,428.85,20.49,429.47,20.69,430.09Z"/><path class="cls-5" d="M19.45,426.13l.12.38-.11-.38Z"/><path class="cls-5" d="M50.11,425.9c5.72-3.35,11.13-6.52,22.13-6.52s16.41,3.17,22.13,6.52c6.28,3.68,12.77,7.48,25.67,7.48s19.39-3.8,25.67-7.48c5.72-3.35,11.13-6.52,22.13-6.52s16.41,3.17,22.13,6.52c6.28,3.68,12.77,7.48,25.67,7.48s19.39-3.8,25.67-7.48c5.72-3.35,11.13-6.52,22.13-6.52s16.41,3.17,22.13,6.52c6.28,3.68,12.77,7.48,25.67,7.48s19.39-3.8,25.67-7.48c5.72-3.35,11.13-6.52,22.13-6.52s16.41,3.17,22.13,6.52c6.08,3.56,12.39,7.23,24.51,7.46q1.2-3.47,2.27-7l-1.11,0c-11,0-16.41-3.17-22.13-6.52-6.28-3.68-12.77-7.48-25.67-7.48s-19.39,3.8-25.67,7.48c-5.72,3.35-11.13,6.52-22.13,6.52s-16.41-3.17-22.13-6.52c-6.28-3.68-12.77-7.48-25.67-7.48s-19.39,3.8-25.67,7.48c-5.72,3.35-11.13,6.52-22.13,6.52s-16.41-3.17-22.13-6.52c-6.28-3.68-12.77-7.48-25.67-7.48s-19.39,3.8-25.67,7.48c-5.72,3.35-11.13,6.52-22.13,6.52s-16.41-3.17-22.13-6.52c-6.28-3.68-12.77-7.48-25.67-7.48s-19.39,3.8-25.67,7.48c-5.72,3.35-11.13,6.52-22.13,6.52a48.32,48.32,0,0,1-5-.25l.11.38c.18.57.36,1.15.54,1.72s.39,1.24.59,1.86c.13.41.27.82.41,1.23.22.67.44,1.34.67,2,.86,0,1.74.06,2.66.06C37.34,433.38,43.83,429.58,50.11,425.9Z"/><path class="cls-6" d="M34.47,462.45l-.67-1.27Z"/><path class="cls-6" d="M36,465.3h0l-.55-1Z"/><path class="cls-6" d="M32.6,458.86l.19.37-.19-.37Z"/><path class="cls-6" d="M72.24,452.56c11,0,16.41,3.17,22.13,6.52,6.28,3.68,12.77,7.48,25.67,7.48s19.39-3.8,25.67-7.48c5.72-3.35,11.13-6.52,22.13-6.52s16.41,3.17,22.13,6.52c6.28,3.68,12.77,7.48,25.67,7.48s19.39-3.8,25.67-7.48c5.72-3.35,11.13-6.52,22.13-6.52s16.41,3.17,22.13,6.52c6.28,3.68,12.77,7.48,25.67,7.48s19.39-3.8,25.67-7.48c5.72-3.35,11.13-6.52,22.13-6.52s16.41,3.17,22.13,6.52A56.11,56.11,0,0,0,392,464.35q1.71-3.12,3.31-6.31a46.3,46.3,0,0,1-10.58-5c-6.28-3.68-12.77-7.48-25.67-7.48s-19.39,3.8-25.67,7.48c-5.72,3.35-11.13,6.52-22.13,6.52S294.82,456.4,289.1,453c-6.28-3.68-12.77-7.48-25.67-7.48S244,449.37,237.76,453c-5.72,3.35-11.13,6.52-22.13,6.52S199.23,456.4,193.5,453c-6.28-3.68-12.77-7.48-25.67-7.48s-19.39,3.8-25.67,7.48c-5.72,3.35-11.13,6.52-22.13,6.52S103.63,456.4,97.91,453c-6.28-3.68-12.77-7.48-25.67-7.48s-19.39,3.8-25.67,7.48c-4.09,2.4-8,4.69-14,5.81l.19.37c.33.65.67,1.3,1,1.95l.67,1.27c.33.62.66,1.23,1,1.84l.55,1c5.89-1.42,10-3.84,14.09-6.21C55.83,455.73,61.24,452.56,72.24,452.56Z"/><path class="cls-7" d="M46.63,482.41l.16.23-.16-.23Z"/><path class="cls-7" d="M50.72,488.12h0l-.16-.22Z"/><path class="cls-7" d="M94.37,488.48c6.28,3.68,12.77,7.48,25.67,7.48s19.39-3.8,25.67-7.48c5.72-3.35,11.13-6.52,22.13-6.52s16.41,3.17,22.13,6.52c6.28,3.68,12.77,7.48,25.67,7.48s19.39-3.8,25.67-7.48c5.72-3.35,11.13-6.52,22.13-6.52s16.41,3.17,22.13,6.52c6.28,3.68,12.77,7.48,25.67,7.48s19.39-3.8,25.67-7.48C342.62,485.13,348,482,359,482c8.9,0,14.13,2.07,18.84,4.64q2.07-2.84,4-5.76C376.39,477.73,370,475,359,475c-12.9,0-19.39,3.8-25.67,7.48-5.72,3.35-11.13,6.52-22.13,6.52s-16.41-3.17-22.13-6.52c-6.28-3.68-12.77-7.48-25.67-7.48s-19.39,3.8-25.67,7.48C232,485.79,226.63,489,215.63,489s-16.41-3.17-22.13-6.52c-6.28-3.68-12.77-7.48-25.67-7.48s-19.39,3.8-25.67,7.48C136.44,485.79,131,489,120,489s-16.41-3.17-22.13-6.52C91.63,478.76,85.14,475,72.24,475s-19.35,3.78-25.61,7.44l.16.23q1.85,2.66,3.78,5.27l.16.22c5.5-3.21,10.91-6.16,21.51-6.16C83.24,482,88.64,485.13,94.37,488.48Z"/><path class="cls-8" d="M74.9,515.21h0l-.17-.16Z"/><path class="cls-8" d="M67.86,508.3h0q1.16,1.2,2.33,2.37l.49.47-.49-.47Q69,509.5,67.86,508.3Z"/><path class="cls-8" d="M120,529.14c12.9,0,19.39-3.8,25.67-7.48,5.72-3.35,11.13-6.52,22.13-6.52s16.41,3.17,22.13,6.52c6.28,3.68,12.77,7.48,25.67,7.48s19.39-3.8,25.67-7.48c5.72-3.35,11.13-6.52,22.13-6.52s16.41,3.17,22.13,6.52c6.28,3.68,12.77,7.48,25.67,7.48s19.39-3.8,25.67-7.48c4.38-2.56,8.57-5,15.22-6,1.75-1.63,3.47-3.27,5.16-5q1.25-1.25,2.48-2.52H359c-12.9,0-19.39,3.8-25.67,7.48-5.72,3.35-11.13,6.52-22.13,6.52s-16.41-3.17-22.13-6.52c-6.28-3.68-12.77-7.48-25.67-7.48s-19.39,3.8-25.67,7.48c-5.72,3.35-11.13,6.52-22.13,6.52s-16.41-3.17-22.13-6.52c-6.28-3.68-12.77-7.48-25.67-7.48s-19.39,3.8-25.67,7.48C136.44,519,131,522.14,120,522.14s-16.41-3.17-22.13-6.52c-6.28-3.68-12.77-7.48-25.67-7.48-1.55,0-3,.06-4.37.16q1.16,1.2,2.33,2.37l.49.47q2,2,4.05,3.91l.17.16c9.24.47,14.22,3.38,19.46,6.45C100.65,525.34,107.14,529.14,120,529.14Z"/><path class="cls-9" d="M132.9,553.38h0l1.82.8q1.9.8,3.82,1.56c-1.28-.51-2.55-1-3.82-1.56Z"/><path class="cls-9" d="M141.87,557h0l-.31-.12Z"/><path class="cls-9" d="M167.84,548.32c11,0,16.41,3.17,22.13,6.52,6.28,3.68,12.77,7.48,25.67,7.48s19.39-3.8,25.67-7.48c5.72-3.35,11.13-6.52,22.13-6.52s16.41,3.17,22.13,6.52l2.29,1.33q2.46-1,4.9-2c1.21-.51,2.4-1,3.6-1.57a60.31,60.31,0,0,1-7.25-3.8c-6.28-3.68-12.77-7.48-25.67-7.48s-19.39,3.8-25.67,7.48c-5.72,3.35-11.13,6.52-22.13,6.52s-16.41-3.17-22.13-6.52c-6.28-3.68-12.77-7.48-25.67-7.48s-19.39,3.8-25.67,7.48a50.3,50.3,0,0,1-9.27,4.58l1.83.8c1.26.53,2.54,1,3.82,1.56l3,1.17.31.12c1.32-.71,2.58-1.45,3.84-2.18C151.43,551.49,156.84,548.32,167.84,548.32Z"/><path class="cls-10" d="M71.34,346.93c23.9,0,23.9,14,47.8,14s23.9-14,47.8-14,23.9,14,47.8,14,23.9-14,47.8-14,23.9,14,47.8,14,23.9-14,47.8-14,23.9,14,47.81,14a44.49,44.49,0,0,0,11.42-1.34,196.46,196.46,0,0,0-11.14-52.67c-8.94-25.35-22.36-49.49-37.71-72.76-6.11-9.27-12.53-18.4-19.09-27.42-19.74-27.13-40.77-53.2-58.68-78.82l-9.35-13.38L248.06,66.87,214.74,19.21,181.42,66.87l-33.32,47.66-9.35,13.38c-17.77,25.41-38.56,51.16-58.12,77.91C57.83,237,36.71,269.55,24,304.51a198.33,198.33,0,0,0-11.9,55.08,44.48,44.48,0,0,0,11.42,1.34C47.44,360.93,47.44,346.93,71.34,346.93Z"/><path class="cls-11" d="M184.42,136.49c0,18.84-14,18.84-14,37.68s14,18.84,14,37.68-14,18.84-14,37.68,14,18.84,14,37.69-14,18.84-14,37.69"/><path class="cls-11" d="M220.91,136.49c0,18.84-14,18.84-14,37.68s14,18.84,14,37.68-14,18.84-14,37.68,14,18.84,14,37.69-14,18.84-14,37.69"/><path class="cls-11" d="M256.75,136.49c0,18.84-14,18.84-14,37.68s14,18.84,14,37.68-14,18.84-14,37.68,14,18.84,14,37.69-14,18.84-14,37.69"/><path class="cls-12" d="M72.33,510.67A202.91,202.91,0,0,0,418.87,367.13c0-22.26-4.29-43.55-11.52-64-8.94-25.35-22.36-49.49-37.71-72.76-6.11-9.27-12.53-18.4-19.09-27.42-19.74-27.13-40.77-53.2-58.68-78.82l-9.35-13.38L249.2,63,215.87,15.37,182.55,63,149.23,110.7l-9.35,13.38c-17.77,25.41-38.56,51.16-58.12,77.91-22.8,31.18-43.91,63.72-56.6,98.69-7.69,21.18-12.28,43.26-12.28,66.45A202.34,202.34,0,0,0,72.33,510.67Z"/></svg>